<svg fill="none" height="356" viewBox="0 0 1878 356" width="1878" xmlns="http://www.w3.org/2000/svg"><g fill="#41693a"><path d="m1856.24 68.8214c-30.55 35.8826-76.08 58.6826-126.8 58.6826-50.76 0-96.28-22.8-126.84-58.6826 6.28-10.2773 13.79-19.7129 22.31-28.1664 24.06 31.4636 61.98 51.7728 104.53 51.7728s80.47-20.3092 104.49-51.7728c8.53 8.4184 16.03 17.8891 22.31 28.1664z"/><path d="m1790.77 10.9104c-11.01-5.01524-22.76-8.69844-35-10.90783093v13.30693093h-.01c0 .0552.01.1062.01.1614 0 15.1528-11.93 26.3424-26.31 26.3424-14.1 0-26.34-11.1896-26.34-26.3424 0-.0552.01-.1062.01-.1614v-13.3095c-.01.00084183-.01.00131856-.01.00173947-12.24 2.20981053-24 5.89257053-35.01 10.90866053-.07.8418-.07 1.7187-.07 2.5605 0 33.8488 27.54 61.4188 61.42 61.4188 33.85 0 61.38-27.57 61.38-61.4188 0-.8418 0-1.7187-.07-2.5605z"/><path d="m1877.81 139.43c-42.68 27.956-93.68 44.197-148.37 44.197-54.72 0-105.72-16.241-148.41-44.197.56-13.223 2.91-25.956 6.74-38.058 39.53 29.64 88.57 47.178 141.67 47.178 53.07 0 102.14-17.573 141.67-47.178 3.79 12.102 6.14 24.835 6.7 38.058z"/><path d="m1711.08 290.609h-40.59c12.7-18.345 17.68-35.743 13.51-48.23-3.4-10.207-12-14.03-18.59-15.434-14.56-3.086-34.38-.736-56.26 6.455-6.95-9.576-12.81-19.994-17.33-31.113 22.73-8.138 53.45-15.469 80.88-9.646 21.65 4.595 37.92 18.661 44.59 38.619 3.86 11.61 6.66 32.2-6.21 59.349z"/><path d="m1867.07 202.287c-4.53 11.119-10.39 21.537-17.33 31.113-21.89-7.191-41.71-9.541-56.26-6.455-6.6 1.404-15.19 5.227-18.59 15.434-4.18 12.487.8 29.885 13.53 48.23h-40.61c-12.88-27.149-10.07-47.739-6.18-59.349 6.67-19.958 22.91-34.024 44.55-38.619 27.43-5.823 58.16 1.508 80.89 9.646z"/><path d="m36.381 227.26c0 20.275 12.8402 32.682 30.2665 32.682 17.7317 0 30.2666-12.407 30.2666-32.682v-131.9385h-36.9925v-32.0767h106.3914v32.0767h-32.407v133.1485c0 40.853-28.738 67.179-67.2584 67.179-38.2153 0-66.6476-26.326-66.6476-67.179v-34.195h36.381z"/><path d="m368.559 130.424v32.077h-29.35v96.23h29.35v32.078h-63.897v-22.999h-.611c-9.478 15.736-28.127 26.933-52.28 26.933-41.883 0-77.653-34.801-77.653-84.127 0-49.325 35.77-84.126 77.653-84.126 24.153 0 43.413 11.802 52.28 26.328h.611v-22.394zm-110.978 131.333c26.903 0 47.386-21.787 47.386-51.141 0-29.353-20.176-51.141-47.386-51.141-26.905 0-47.387 21.788-47.387 51.141 0 29.354 20.178 51.141 47.387 51.141z"/><path d="m387.881 210.616c0-47.812 36.382-85.033 82.546-85.033 40.354 0 72.761 28.445 80.405 67.482h-36.687c-6.115-20.275-22.624-33.59-43.718-33.59-26.292 0-46.47 21.183-46.47 51.141 0 29.959 20.178 51.141 46.47 51.141 21.094 0 37.603-13.315 43.718-33.59h36.687c-7.644 38.735-40.051 67.482-80.405 67.482-46.164 0-82.546-37.22-82.546-85.033z"/><path d="m768.024 130.424v32.077h-29.348v160.989h29.348v32.077h-95.692v-32.077h31.491v-55.378h-.612c-8.56 15.131-27.82 26.631-51.362 26.631-41.884 0-78.265-34.801-78.265-84.127 0-49.325 36.381-84.126 78.265-84.126 23.846 0 42.802 11.197 51.669 26.63h.611v-22.696zm-110.976 131.333c26.903 0 47.386-21.787 47.386-51.141 0-29.353-20.176-51.444-47.386-51.444-26.905 0-47.388 22.091-47.388 51.444 0 29.354 20.483 51.141 47.388 51.141z"/><path d="m915.412 290.809v-19.671h-.612c-6.419 12.71-19.567 23.605-43.413 23.605-35.463 0-55.641-24.815-55.641-62.036v-70.206h-29.348v-32.077h64.201v95.02c0 23.906 10.394 37.524 30.266 37.524 21.094 0 33.324-16.039 33.324-39.34v-61.127h-29.35v-32.077h64.202v128.307h29.656v32.078z"/><path d="m1189.58 130.424v32.077h-29.35v96.23h29.35v32.078h-63.9v-22.999h-.61c-9.48 15.736-28.12 26.933-52.28 26.933-41.88 0-77.651-34.801-77.651-84.127 0-49.325 35.771-84.126 77.651-84.126 24.16 0 43.42 11.802 52.28 26.328h.61v-22.394zm-110.98 131.333c26.91 0 47.39-21.787 47.39-51.141 0-29.353-20.18-51.141-47.39-51.141-26.9 0-47.38 21.788-47.38 51.141 0 29.354 20.17 51.141 47.38 51.141z"/><path d="m1270.15 130.225v128.306h33.63v32.078h-98.14v-32.078h29.66v-96.23h-29.66v-32.076zm66.04 24.814c0 15.13-11.93 26.327-26.3 26.327-14.06 0-26.29-11.197-26.29-26.327 0-15.433 12.23-26.63 26.29-26.63 14.37 0 26.3 11.197 26.3 26.63z"/><path d="m1516.71 63.2448v195.4862h29.66v32.078h-63.59v-22.999h-.61c-8.56 15.735-28.13 26.933-51.98 26.933-41.88 0-77.96-34.801-77.96-84.127 0-49.325 36.08-84.126 77.66-84.126 23.23 0 42.49 10.592 51.36 25.117h.61v-56.2855h-31.49v-32.0767zm-81.01 198.2102c26.9 0 47.38-21.486 47.38-50.839s-20.17-50.838-47.38-50.838c-26.91 0-47.39 21.485-47.39 50.838 0 29.354 20.48 50.839 47.39 50.839z"/></g></svg>