<svg width="408" height="78" viewBox="0 0 408 78" fill="none" xmlns="http://www.w3.org/2000/svg">
<path d="M9.59266 43.2462C9.59266 48.5922 12.9783 51.8636 17.5731 51.8636C22.2485 51.8636 25.5536 48.5922 25.5536 43.2462V8.45777H15.7997V0H43.8522V8.45777H35.3074V43.5654C35.3074 54.3371 27.73 61.2787 17.5731 61.2787C7.49681 61.2787 0 54.3371 0 43.5654V34.5491H9.59268L9.59266 43.2462Z" fill="#2C6231"/>
<path d="M97.1788 17.7134V26.1712H89.44V51.5444H97.1788V60.0024H80.331V53.9381H80.1698C77.6707 58.0872 72.7534 61.0397 66.385 61.0397C55.3416 61.0397 45.9102 51.8636 45.9102 38.8578C45.9102 25.852 55.3416 16.6761 66.385 16.6761C72.7534 16.6761 77.8319 19.788 80.1698 23.6179H80.331V17.7134L97.1788 17.7134ZM67.917 52.3423C75.0105 52.3423 80.4113 46.5975 80.4113 38.8578C80.4113 31.1182 75.0914 25.3733 67.917 25.3733C60.823 25.3733 55.4222 31.1181 55.4222 38.8578C55.4222 46.5975 60.7427 52.3423 67.917 52.3423Z" fill="#2C6231"/>
<path d="M102.273 38.8578C102.273 26.251 111.867 16.4368 124.039 16.4368C134.679 16.4368 143.224 23.937 145.239 34.23H135.566C133.953 28.884 129.601 25.3732 124.039 25.3732C117.106 25.3732 111.786 30.9586 111.786 38.8578C111.786 46.757 117.106 52.3423 124.039 52.3423C129.601 52.3423 133.953 48.8316 135.566 43.4856H145.239C143.224 53.6988 134.679 61.2787 124.039 61.2787C111.867 61.2787 102.273 51.4646 102.273 38.8578Z" fill="#2C6231"/>
<path d="M202.507 17.7134V26.1712H194.768V68.6196H202.507V77.0772H177.275V68.6196H185.579V54.0179H185.417C183.16 58.0074 178.082 61.0397 171.875 61.0397C160.831 61.0397 151.238 51.8636 151.238 38.8578C151.238 25.852 160.831 16.6761 171.875 16.6761C178.162 16.6761 183.16 19.6284 185.498 23.6977H185.659V17.7134H202.507ZM173.245 52.3423C180.339 52.3423 185.74 46.5974 185.74 38.8578C185.74 31.1182 180.42 25.2935 173.245 25.2935C166.151 25.2935 160.751 31.1181 160.751 38.8578C160.751 46.5975 166.151 52.3423 173.245 52.3423Z" fill="#2C6231"/>
<path d="M241.369 60.0024V54.8158H241.208C239.515 58.167 236.048 61.0396 229.761 61.0396C220.41 61.0396 215.09 54.4966 215.09 44.6824V26.1711H207.352V17.7134H224.28V42.7675C224.28 49.0709 227.02 52.6615 232.26 52.6615C237.822 52.6615 241.047 48.4326 241.047 42.2888V26.1711H233.308V17.7134H250.236V51.5444H258.055V60.0024H241.369Z" fill="#2C6231"/>
<path d="M313.659 17.7134V26.1712H305.92V51.5444H313.659V60.0024H296.811V53.9381H296.65C294.152 58.0872 289.234 61.0397 282.866 61.0397C271.822 61.0397 262.391 51.8636 262.391 38.8578C262.391 25.852 271.822 16.6761 282.866 16.6761C289.234 16.6761 294.313 19.788 296.65 23.6179H296.811V17.7134L313.659 17.7134ZM284.397 52.3423C291.491 52.3423 296.892 46.5975 296.892 38.8578C296.892 31.1182 291.572 25.3733 284.397 25.3733C277.304 25.3733 271.903 31.1181 271.903 38.8578C271.903 46.5975 277.223 52.3423 284.397 52.3423Z" fill="#2C6231"/>
<path d="M334.903 17.6607V51.4917H343.77V59.9497H317.895V51.4917H325.714V26.1185H317.895V17.6607H334.903ZM352.316 24.2036C352.316 28.193 349.172 31.1453 345.383 31.1453C341.675 31.1453 338.451 28.193 338.451 24.2036C338.451 20.1343 341.675 17.182 345.383 17.182C349.172 17.182 352.316 20.1343 352.316 24.2036Z" fill="#2C6231"/>
<path d="M399.915 0V51.5444H407.734V60.0024H390.967V53.9381H390.806C388.549 58.0872 383.39 61.0397 377.102 61.0397C366.059 61.0397 356.547 51.8636 356.547 38.8578C356.547 25.852 366.059 16.6761 377.022 16.6761C383.148 16.6761 388.227 19.4688 390.564 23.2987H390.725V8.45777H382.423V0H399.915ZM378.553 52.2625C385.647 52.2625 391.048 46.5974 391.048 38.8578C391.048 31.1182 385.728 25.4531 378.553 25.4531C371.46 25.4531 366.059 31.1181 366.059 38.8578C366.059 46.5975 371.46 52.2625 378.553 52.2625Z" fill="#2C6231"/>
<path d="M7.49878 74.8984C7.49878 76.4428 6.30639 77.5557 4.83009 77.5557C3.36514 77.5557 2.16139 76.4428 2.16139 74.8984V71.3098C2.16139 69.7654 3.36514 68.6525 4.83009 68.6525C6.30639 68.6525 7.49878 69.7654 7.49878 71.3098V74.8984ZM6.81741 71.3212C6.81741 70.1515 5.9657 69.3225 4.83009 69.3225C3.69447 69.3225 2.84276 70.1515 2.84276 71.3212V74.8757C2.84276 76.0567 3.69447 76.8857 4.83009 76.8857C5.9657 76.8857 6.81741 76.0567 6.81741 74.8757V71.3212ZM13.2249 68.8342V74.4555H14.5877V75.0574H13.2249V77.374H12.5663V75.0574H8.76198V74.5009L12.5436 68.8342H13.2249ZM9.52284 74.4555H12.5663V69.879H12.5436L9.52284 74.4328V74.4555ZM19.8319 77.374H19.389V76.7721L22.7732 69.4701H18.3783V68.8342H23.5V69.4588L19.8319 77.374ZM26.9229 68.6525C28.4105 68.6525 29.3871 69.7881 29.3871 71.1849V71.1963C29.3871 72.4795 28.49 73.2177 27.5134 73.9218L26.9796 74.3079C26.0484 74.9779 25.2649 75.6138 25.174 76.7381H29.5121V77.374H24.5267V76.9425C24.5267 75.3186 25.6964 74.4668 26.7979 73.6719C27.7973 72.9565 28.7171 72.3092 28.7171 71.1963V71.1849C28.7171 70.1061 28.013 69.2884 26.9229 69.2884C25.844 69.2884 25.1399 70.1061 25.1399 71.2644V71.73H24.4699V71.2644C24.4699 69.7768 25.4466 68.6525 26.9229 68.6525ZM38.2184 74.8302C38.2184 73.6038 37.3553 72.7294 36.2311 72.7294C35.5497 72.7294 35.016 73.07 34.6526 73.5697L34.0507 73.3539L34.8797 68.8342H38.5932V69.4701H35.3907L34.8002 72.7294C35.1636 72.3773 35.6746 72.1388 36.3219 72.1388C37.7074 72.1388 38.8884 73.2517 38.8884 74.8302C38.8884 76.4088 37.7187 77.5557 36.2311 77.5557C34.8229 77.5557 33.6987 76.5337 33.5851 75.0801H34.2438C34.3573 76.1703 35.1863 76.9198 36.2311 76.9198C37.3553 76.9198 38.2184 76.0567 38.2184 74.8302ZM42.593 68.6525C44.0807 68.6525 45.0573 69.7881 45.0573 71.1849V71.1963C45.0573 72.4795 44.1602 73.2177 43.1835 73.9218L42.6498 74.3079C41.7186 74.9779 40.935 75.6138 40.8442 76.7381H45.1822V77.374H40.1969V76.9425C40.1969 75.3186 41.3665 74.4668 42.4681 73.6719C43.4674 72.9565 44.3873 72.3092 44.3873 71.1963V71.1849C44.3873 70.1061 43.6832 69.2884 42.593 69.2884C41.5142 69.2884 40.8101 70.1061 40.8101 71.2644V71.73H40.1401V71.2644C40.1401 69.7768 41.1167 68.6525 42.593 68.6525ZM51.0722 68.8342V77.374H50.3909V69.4815H48.96V68.8342H51.0722ZM55.2245 68.6525C56.7122 68.6525 57.6888 69.7881 57.6888 71.1849V71.1963C57.6888 72.4795 56.7917 73.2177 55.815 73.9218L55.2813 74.3079C54.3501 74.9779 53.5665 75.6138 53.4757 76.7381H57.8137V77.374H52.8284V76.9425C52.8284 75.3186 53.998 74.4668 55.0996 73.6719C56.0989 72.9565 57.0188 72.3092 57.0188 71.1963V71.1849C57.0188 70.1061 56.3147 69.2884 55.2245 69.2884C54.1457 69.2884 53.4416 70.1061 53.4416 71.2644V71.73H52.7716V71.2644C52.7716 69.7768 53.7482 68.6525 55.2245 68.6525ZM62.0571 71.3098C62.0571 69.7881 63.2722 68.6525 64.7372 68.6525C66.2021 68.6525 67.4058 69.7881 67.4058 71.2871V74.8984C67.4058 76.4315 66.2135 77.5557 64.7485 77.5557C63.2836 77.5557 62.1025 76.4428 62.0798 74.9325H62.7498C62.7839 76.0567 63.6356 76.8971 64.7485 76.8971C65.8728 76.8971 66.7358 76.034 66.7358 74.8757V72.8202C66.3611 73.4902 65.6002 73.9672 64.6917 73.9672C63.2836 73.9672 62.0571 72.8089 62.0571 71.3098ZM66.7472 71.3098C66.7472 70.1629 65.8728 69.2771 64.7372 69.2771C63.6015 69.2771 62.7271 70.1742 62.7271 71.3098C62.7271 72.4682 63.6015 73.3653 64.7372 73.3653C65.8728 73.3653 66.7472 72.4682 66.7472 71.3098ZM74.3825 74.8984C74.3825 76.4428 73.1901 77.5557 71.7138 77.5557C70.2489 77.5557 69.0451 76.4428 69.0451 74.8984V71.3098C69.0451 69.7654 70.2489 68.6525 71.7138 68.6525C73.1901 68.6525 74.3825 69.7654 74.3825 71.3098V74.8984ZM73.7011 71.3212C73.7011 70.1515 72.8494 69.3225 71.7138 69.3225C70.5782 69.3225 69.7265 70.1515 69.7265 71.3212V74.8757C69.7265 76.0567 70.5782 76.8857 71.7138 76.8857C72.8494 76.8857 73.7011 76.0567 73.7011 74.8757V71.3212Z" fill="#2C6231"/>
<path d="M257.836 75.106C257.836 76.1162 258.418 76.775 259.318 76.775C260.218 76.775 260.8 76.1162 260.8 75.106V68.9898H261.47V75.1279C261.47 76.4895 260.592 77.4229 259.318 77.4229C258.044 77.4229 257.166 76.4895 257.166 75.1279V74.1946H257.836V75.106ZM265.377 68.9459H266.19L268.913 76.6542V77.2472H268.419L267.464 74.535H264.104L263.148 77.2472H262.654V76.6542L265.377 68.9459ZM264.312 73.9201H267.255L265.828 69.8573L265.795 69.7584H265.773L265.74 69.8573L264.312 73.9201ZM269.696 73.1185C269.696 70.7247 271.464 68.8141 273.791 68.8141C275.658 68.8141 277.162 70.0329 277.69 71.7349H276.965C276.471 70.3953 275.274 69.4839 273.791 69.4839C271.848 69.4839 270.387 71.0541 270.387 73.1185C270.387 75.1828 271.848 76.7531 273.791 76.7531C275.274 76.7531 276.471 75.8417 276.965 74.502H277.69C277.162 76.204 275.658 77.4229 273.791 77.4229C271.464 77.4229 269.696 75.5123 269.696 73.1185ZM283.198 77.4229C280.859 77.4229 279.003 75.5123 279.003 73.1185C279.003 70.7247 280.859 68.8141 283.198 68.8141C285.526 68.8141 287.382 70.7247 287.382 73.1185C287.382 74.2165 286.997 75.2048 286.349 75.9734L287.118 76.7311V77.3241H286.855L285.921 76.4017C285.196 77.0386 284.241 77.4229 283.198 77.4229ZM283.198 76.764C284.065 76.764 284.834 76.4676 285.449 75.9405L283.341 73.8542V73.2722H283.604L285.877 75.5013C286.382 74.8864 286.701 74.0518 286.701 73.1185C286.701 71.0432 285.153 69.4729 283.198 69.4729C281.243 69.4729 279.695 71.0432 279.695 73.1185C279.695 75.1938 281.243 76.764 283.198 76.764ZM294.616 74.546C294.616 76.2589 293.43 77.4229 291.815 77.4229C290.201 77.4229 289.004 76.2589 289.004 74.546V68.9898H289.685V74.502C289.685 75.8527 290.531 76.7531 291.815 76.7531C293.1 76.7531 293.946 75.8527 293.946 74.502V68.9898H294.616V74.546ZM298.523 68.9459H299.336L302.059 76.6542V77.2472H301.565L300.609 74.535H297.249L296.294 77.2472H295.8V76.6542L298.523 68.9459ZM297.458 73.9201H300.401L298.973 69.8573L298.94 69.7584H298.918L298.885 69.8573L297.458 73.9201ZM303.461 68.9898H305.888C307.052 68.9898 308.139 69.8792 308.139 71.2408C308.139 72.1742 307.634 72.844 306.931 73.1734C307.48 73.4369 307.865 73.964 307.865 74.6448V77.2472H307.184V74.6777C307.184 73.9311 306.668 73.5028 305.943 73.5028H304.131V77.2472H303.461V68.9898ZM304.131 72.9099H305.745C306.69 72.9099 307.458 72.262 307.458 71.2518C307.458 70.2526 306.69 69.5937 305.745 69.5937H304.131V72.9099ZM316.012 73.1185C316.012 75.5342 314.178 77.2472 311.938 77.2472H309.895V68.9898H311.938C314.178 68.9898 316.012 70.7028 316.012 73.1185ZM315.331 73.1185C315.331 71.0322 313.804 69.6047 311.839 69.6047H310.565V76.6323H311.839C313.804 76.6323 315.331 75.1938 315.331 73.1185ZM317.713 68.9898H321.742V69.6157H318.382V72.6793H321.523V73.3052H318.382V76.6213H321.742V77.2472H317.713V68.9898ZM323.178 71.0651C323.178 69.7035 324.21 68.8141 325.528 68.8141C326.769 68.8141 327.746 69.6047 327.856 71.0981H327.197C327.098 69.9671 326.373 69.429 325.517 69.429C324.595 69.429 323.837 70.0439 323.837 71.0651C323.837 71.9216 324.353 72.273 325.166 72.5365L326.417 72.9318C327.417 73.2503 328.108 73.8762 328.108 75.0291C328.108 76.4676 326.988 77.4229 325.539 77.4229C324.144 77.4229 323.013 76.5335 322.915 74.9083H323.584C323.672 76.1601 324.529 76.775 325.539 76.775C326.593 76.775 327.45 76.1052 327.45 75.0511C327.45 74.1946 326.977 73.7993 326.187 73.5467L324.957 73.1514C323.925 72.822 323.178 72.284 323.178 71.0651ZM329.744 68.9898H331.995C333.214 68.9898 334.389 69.9341 334.389 71.4714C334.389 73.0087 333.181 73.942 331.995 73.942H330.414V77.2472H329.744V68.9898ZM330.414 73.3271H331.874C332.852 73.3271 333.719 72.6353 333.719 71.4604C333.719 70.2855 332.852 69.5937 331.874 69.5937H330.414V73.3271ZM337.159 68.9459H337.971L340.695 76.6542V77.2472H340.2L339.245 74.535H335.885L334.93 77.2472H334.436V76.6542L337.159 68.9459ZM336.094 73.9201H339.036L337.609 69.8573L337.576 69.7584H337.554L337.521 69.8573L336.094 73.9201ZM341.477 73.1185C341.477 70.7247 343.245 68.8141 345.573 68.8141C347.439 68.8141 348.944 70.0329 349.471 71.7349H348.746C348.252 70.3953 347.055 69.4839 345.573 69.4839C343.629 69.4839 342.169 71.0541 342.169 73.1185C342.169 75.1828 343.629 76.7531 345.573 76.7531C347.055 76.7531 348.252 75.8417 348.746 74.502H349.471C348.944 76.204 347.439 77.4229 345.573 77.4229C343.245 77.4229 341.477 75.5123 341.477 73.1185ZM351.169 68.9898H355.199V69.6157H351.839V72.6793H354.979V73.3052H351.839V76.6213H355.199V77.2472H351.169V68.9898ZM356.635 71.0651C356.635 69.7035 357.667 68.8141 358.984 68.8141C360.225 68.8141 361.202 69.6047 361.312 71.0981H360.653C360.555 69.9671 359.83 69.429 358.973 69.429C358.051 69.429 357.293 70.0439 357.293 71.0651C357.293 71.9216 357.809 72.273 358.622 72.5365L359.874 72.9318C360.873 73.2503 361.565 73.8762 361.565 75.0291C361.565 76.4676 360.445 77.4229 358.995 77.4229C357.601 77.4229 356.47 76.5335 356.371 74.9083H357.041C357.129 76.1601 357.985 76.775 358.995 76.775C360.05 76.775 360.906 76.1052 360.906 75.0511C360.906 74.1946 360.434 73.7993 359.643 73.5467L358.413 73.1514C357.381 72.822 356.635 72.284 356.635 71.0651ZM365.806 77.2692H365.071L362.38 69.5827V68.9898H362.885L365.411 76.2589L365.422 76.3248H365.444L365.466 76.2589L367.991 68.9898H368.486V69.5827L365.806 77.2692ZM369.892 68.9898H373.922V69.6157H370.562V72.6793H373.702V73.3052H370.562V76.6213H373.922V77.2472H369.892V68.9898ZM375.522 68.9898H377.948C379.112 68.9898 380.199 69.8792 380.199 71.2408C380.199 72.1742 379.694 72.844 378.991 73.1734C379.54 73.4369 379.925 73.964 379.925 74.6448V77.2472H379.244V74.6777C379.244 73.9311 378.728 73.5028 378.003 73.5028H376.191V77.2472H375.522V68.9898ZM376.191 72.9099H377.805C378.75 72.9099 379.518 72.262 379.518 71.2518C379.518 70.2526 378.75 69.5937 377.805 69.5937H376.191V72.9099ZM386.223 68.9898V69.6157H383.939V77.2472H383.269V69.6157H380.985V68.9898H386.223ZM387.003 71.0651C387.003 69.7035 388.035 68.8141 389.353 68.8141C390.593 68.8141 391.571 69.6047 391.68 71.0981H391.022C390.923 69.9671 390.198 69.429 389.342 69.429C388.419 69.429 387.662 70.0439 387.662 71.0651C387.662 71.9216 388.178 72.273 388.99 72.5365L390.242 72.9318C391.241 73.2503 391.933 73.8762 391.933 75.0291C391.933 76.4676 390.813 77.4229 389.364 77.4229C387.969 77.4229 386.838 76.5335 386.739 74.9083H387.409C387.497 76.1601 388.353 76.775 389.364 76.775C390.418 76.775 391.274 76.1052 391.274 75.0511C391.274 74.1946 390.802 73.7993 390.011 73.5467L388.782 73.1514C387.749 72.822 387.003 72.284 387.003 71.0651ZM393.732 77.335C393.425 77.335 393.172 77.0825 393.172 76.764C393.172 76.4566 393.425 76.1931 393.732 76.1931C394.051 76.1931 394.303 76.4566 394.303 76.764C394.303 77.0825 394.051 77.335 393.732 77.335ZM395.949 68.9898H399.902V69.6157H396.619V72.6902H399.683V73.3161H396.619V77.2472H395.949V68.9898ZM401.364 68.9898H403.791C404.955 68.9898 406.042 69.8792 406.042 71.2408C406.042 72.1742 405.537 72.844 404.834 73.1734C405.383 73.4369 405.768 73.964 405.768 74.6448V77.2472H405.087V74.6777C405.087 73.9311 404.571 73.5028 403.846 73.5028H402.034V77.2472H401.364V68.9898ZM402.034 72.9099H403.648C404.593 72.9099 405.361 72.262 405.361 71.2518C405.361 70.2526 404.593 69.5937 403.648 69.5937H402.034V72.9099Z" fill="#2C6231"/>
</svg>
