<svg width="496" height="95" viewBox="0 0 496 95" fill="none" xmlns="http://www.w3.org/2000/svg">
<path d="M489.44 18.1463C481.384 27.6077 469.379 33.6193 456.006 33.6193C442.623 33.6193 430.618 27.6077 422.562 18.1463C424.218 15.4365 426.197 12.9486 428.445 10.7196C434.789 19.0157 444.787 24.3707 456.006 24.3707C467.224 24.3707 477.222 19.0157 483.557 10.7196C485.805 12.9393 487.784 15.4365 489.44 18.1463Z" fill="#2C6231"/>
<path d="M472.177 2.87677C469.274 1.55439 466.176 0.583233 462.948 0.000677393V3.50935H462.945C462.945 3.52391 462.947 3.53734 462.947 3.55191C462.947 7.54729 459.803 10.4977 456.011 10.4977C452.293 10.4977 449.065 7.54729 449.065 3.55191C449.065 3.53734 449.068 3.52391 449.068 3.50935L449.067 0C449.067 0.000221968 449.066 0.000347667 449.065 0.000458651C445.837 0.583125 442.739 1.55417 439.835 2.87678C439.816 3.09874 439.816 3.32996 439.816 3.55192C439.816 12.4769 447.077 19.7463 456.011 19.7463C464.936 19.7463 472.196 12.4769 472.196 3.55192C472.196 3.32996 472.196 3.09873 472.177 2.87677Z" fill="#2C6231"/>
<path d="M495.128 36.764C483.872 44.1351 470.425 48.4173 456.006 48.4173C441.578 48.4173 428.131 44.1351 416.875 36.764C417.023 33.2772 417.643 29.9199 418.651 26.7291C429.074 34.5443 442.004 39.1686 456.006 39.1686C469.999 39.1686 482.938 34.535 493.361 26.7291C494.36 29.9199 494.98 33.2772 495.128 36.764Z" fill="#2C6231"/>
<path d="M451.164 76.6256H440.464C443.812 71.7886 445.125 67.2012 444.024 63.9087C443.127 61.2174 440.861 60.2092 439.122 59.8393C435.284 59.0254 430.059 59.6451 424.288 61.5411C422.456 59.0162 420.912 56.2693 419.719 53.3375C425.712 51.1918 433.814 49.2588 441.046 50.7941C446.753 52.0057 451.044 55.7144 452.801 60.9769C453.819 64.0382 454.558 69.4672 451.164 76.6256Z" fill="#2C6231"/>
<path d="M492.294 53.3375C491.101 56.2693 489.556 59.0162 487.725 61.5411C481.954 59.6451 476.728 59.0254 472.89 59.8393C471.151 60.2092 468.885 61.2174 467.988 63.9087C466.888 67.2012 468.201 71.7886 471.558 76.6256H460.848C457.454 69.4672 458.194 64.0382 459.221 60.9769C460.978 55.7144 465.26 52.0057 470.966 50.7941C478.199 49.2588 486.301 51.1918 492.294 53.3375Z" fill="#2C6231"/>
<path d="M9.59266 59.9221C9.59266 65.2681 12.9783 68.5395 17.5731 68.5395C22.2485 68.5395 25.5536 65.2681 25.5536 59.9221V25.1337H15.7997V16.6759H43.8522V25.1337H35.3074V60.2413C35.3074 71.013 27.73 77.9546 17.5731 77.9546C7.49681 77.9546 0 71.013 0 60.2413V51.225H9.59268L9.59266 59.9221Z" fill="#2C6231"/>
<path d="M97.1788 34.3893V42.8471H89.44V68.2203H97.1788V76.6783H80.331V70.614H80.1698C77.6707 74.7631 72.7534 77.7156 66.385 77.7156C55.3416 77.7156 45.9102 68.5395 45.9102 55.5337C45.9102 42.5279 55.3416 33.3521 66.385 33.3521C72.7534 33.3521 77.8319 36.4639 80.1698 40.2938H80.331V34.3893L97.1788 34.3893ZM67.917 69.0182C75.0105 69.0182 80.4113 63.2734 80.4113 55.5337C80.4113 47.7941 75.0914 42.0492 67.917 42.0492C60.823 42.0492 55.4222 47.794 55.4222 55.5337C55.4222 63.2734 60.7427 69.0182 67.917 69.0182Z" fill="#2C6231"/>
<path d="M102.273 55.5337C102.273 42.9269 111.867 33.1127 124.039 33.1127C134.679 33.1127 143.224 40.6129 145.239 50.9059H135.566C133.953 45.5599 129.601 42.0491 124.039 42.0491C117.106 42.0491 111.786 47.6345 111.786 55.5337C111.786 63.4329 117.106 69.0182 124.039 69.0182C129.601 69.0182 133.953 65.5075 135.566 60.1615H145.239C143.224 70.3747 134.679 77.9546 124.039 77.9546C111.867 77.9546 102.273 68.1405 102.273 55.5337Z" fill="#2C6231"/>
<path d="M202.507 34.3893V42.8471H194.768V85.2955H202.507V93.7531H177.275V85.2955H185.579V70.6938H185.417C183.16 74.6833 178.082 77.7156 171.875 77.7156C160.831 77.7156 151.238 68.5395 151.238 55.5337C151.238 42.528 160.831 33.3521 171.875 33.3521C178.162 33.3521 183.16 36.3043 185.498 40.3736H185.659V34.3893H202.507ZM173.245 69.0182C180.339 69.0182 185.74 63.2734 185.74 55.5337C185.74 47.7941 180.42 41.9694 173.245 41.9694C166.151 41.9694 160.751 47.794 160.751 55.5337C160.751 63.2734 166.151 69.0182 173.245 69.0182Z" fill="#2C6231"/>
<path d="M241.369 76.6783V71.4917H241.208C239.515 74.8429 236.048 77.7156 229.761 77.7156C220.41 77.7156 215.09 71.1726 215.09 61.3583V42.8471H207.352V34.3893H224.28V59.4434C224.28 65.7468 227.02 69.3374 232.26 69.3374C237.822 69.3374 241.047 65.1085 241.047 58.9647V42.8471H233.308V34.3893H250.236V68.2203H258.055V76.6783H241.369Z" fill="#2C6231"/>
<path d="M313.659 34.3893V42.8471H305.92V68.2203H313.659V76.6783H296.811V70.614H296.65C294.152 74.7631 289.234 77.7156 282.866 77.7156C271.822 77.7156 262.391 68.5395 262.391 55.5337C262.391 42.5279 271.822 33.3521 282.866 33.3521C289.234 33.3521 294.313 36.4639 296.65 40.2938H296.811V34.3893L313.659 34.3893ZM284.397 69.0182C291.491 69.0182 296.892 63.2734 296.892 55.5337C296.892 47.7941 291.572 42.0492 284.397 42.0492C277.304 42.0492 271.903 47.794 271.903 55.5337C271.903 63.2734 277.223 69.0182 284.397 69.0182Z" fill="#2C6231"/>
<path d="M334.903 34.3366V68.1676H343.77V76.6256H317.895V68.1676H325.714V42.7944H317.895V34.3366H334.903ZM352.316 40.8795C352.316 44.8689 349.172 47.8212 345.383 47.8212C341.675 47.8212 338.451 44.8689 338.451 40.8795C338.451 36.8102 341.675 33.8579 345.383 33.8579C349.172 33.8579 352.316 36.8102 352.316 40.8795Z" fill="#2C6231"/>
<path d="M399.915 16.6759V68.2203H407.734V76.6783H390.967V70.614H390.806C388.549 74.7631 383.39 77.7156 377.102 77.7156C366.059 77.7156 356.547 68.5395 356.547 55.5337C356.547 42.5279 366.059 33.352 377.022 33.352C383.148 33.352 388.227 36.1447 390.564 39.9746H390.725V25.1337H382.423V16.6759H399.915ZM378.553 68.9384C385.647 68.9384 391.048 63.2733 391.048 55.5337C391.048 47.7941 385.728 42.129 378.553 42.129C371.46 42.129 366.059 47.794 366.059 55.5337C366.059 63.2734 371.46 68.9384 378.553 68.9384Z" fill="#2C6231"/>
<path d="M7.49878 91.5743C7.49878 93.1187 6.30639 94.2316 4.83009 94.2316C3.36514 94.2316 2.16139 93.1187 2.16139 91.5743V87.9857C2.16139 86.4413 3.36514 85.3284 4.83009 85.3284C6.30639 85.3284 7.49878 86.4413 7.49878 87.9857V91.5743ZM6.81741 87.9971C6.81741 86.8274 5.9657 85.9984 4.83009 85.9984C3.69447 85.9984 2.84276 86.8274 2.84276 87.9971V91.5516C2.84276 92.7326 3.69447 93.5616 4.83009 93.5616C5.9657 93.5616 6.81741 92.7326 6.81741 91.5516V87.9971ZM13.2249 85.5101V91.1314H14.5877V91.7333H13.2249V94.0499H12.5663V91.7333H8.76198V91.1768L12.5436 85.5101H13.2249ZM9.52284 91.1314H12.5663V86.5549H12.5436L9.52284 91.1087V91.1314ZM19.8319 94.0499H19.389V93.4481L22.7732 86.146H18.3783V85.5101H23.5V86.1347L19.8319 94.0499ZM26.9229 85.3284C28.4105 85.3284 29.3871 86.464 29.3871 87.8608V87.8722C29.3871 89.1554 28.49 89.8936 27.5134 90.5977L26.9796 90.9838C26.0484 91.6538 25.2649 92.2897 25.174 93.414H29.5121V94.0499H24.5267V93.6184C24.5267 91.9945 25.6964 91.1428 26.7979 90.3478C27.7973 89.6324 28.7171 88.9851 28.7171 87.8722V87.8608C28.7171 86.782 28.013 85.9643 26.9229 85.9643C25.844 85.9643 25.1399 86.782 25.1399 87.9403V88.4059H24.4699V87.9403C24.4699 86.4527 25.4466 85.3284 26.9229 85.3284ZM38.2184 91.5061C38.2184 90.2797 37.3553 89.4053 36.2311 89.4053C35.5497 89.4053 35.016 89.7459 34.6526 90.2456L34.0507 90.0298L34.8797 85.5101H38.5932V86.146H35.3907L34.8002 89.4053C35.1636 89.0532 35.6746 88.8147 36.3219 88.8147C37.7074 88.8147 38.8884 89.9276 38.8884 91.5061C38.8884 93.0847 37.7187 94.2316 36.2311 94.2316C34.8229 94.2316 33.6987 93.2096 33.5851 91.756H34.2438C34.3573 92.8462 35.1863 93.5957 36.2311 93.5957C37.3553 93.5957 38.2184 92.7326 38.2184 91.5061ZM42.593 85.3284C44.0807 85.3284 45.0573 86.464 45.0573 87.8608V87.8722C45.0573 89.1554 44.1602 89.8936 43.1835 90.5977L42.6498 90.9838C41.7186 91.6538 40.935 92.2897 40.8442 93.414H45.1822V94.0499H40.1969V93.6184C40.1969 91.9945 41.3665 91.1428 42.4681 90.3478C43.4674 89.6324 44.3873 88.9851 44.3873 87.8722V87.8608C44.3873 86.782 43.6832 85.9643 42.593 85.9643C41.5142 85.9643 40.8101 86.782 40.8101 87.9403V88.4059H40.1401V87.9403C40.1401 86.4527 41.1167 85.3284 42.593 85.3284ZM51.0722 85.5101V94.0499H50.3909V86.1574H48.96V85.5101H51.0722ZM55.2245 85.3284C56.7122 85.3284 57.6888 86.464 57.6888 87.8608V87.8722C57.6888 89.1554 56.7917 89.8936 55.815 90.5977L55.2813 90.9838C54.3501 91.6538 53.5665 92.2897 53.4757 93.414H57.8137V94.0499H52.8284V93.6184C52.8284 91.9945 53.998 91.1428 55.0996 90.3478C56.0989 89.6324 57.0188 88.9851 57.0188 87.8722V87.8608C57.0188 86.782 56.3147 85.9643 55.2245 85.9643C54.1457 85.9643 53.4416 86.782 53.4416 87.9403V88.4059H52.7716V87.9403C52.7716 86.4527 53.7482 85.3284 55.2245 85.3284ZM62.0571 87.9857C62.0571 86.464 63.2722 85.3284 64.7372 85.3284C66.2021 85.3284 67.4058 86.464 67.4058 87.963V91.5743C67.4058 93.1074 66.2135 94.2316 64.7485 94.2316C63.2836 94.2316 62.1025 93.1187 62.0798 91.6084H62.7498C62.7839 92.7326 63.6356 93.573 64.7485 93.573C65.8728 93.573 66.7358 92.7099 66.7358 91.5516V89.4961C66.3611 90.1661 65.6002 90.6431 64.6917 90.6431C63.2836 90.6431 62.0571 89.4848 62.0571 87.9857ZM66.7472 87.9857C66.7472 86.8388 65.8728 85.953 64.7372 85.953C63.6015 85.953 62.7271 86.8501 62.7271 87.9857C62.7271 89.1441 63.6015 90.0412 64.7372 90.0412C65.8728 90.0412 66.7472 89.1441 66.7472 87.9857ZM74.3825 91.5743C74.3825 93.1187 73.1901 94.2316 71.7138 94.2316C70.2489 94.2316 69.0451 93.1187 69.0451 91.5743V87.9857C69.0451 86.4413 70.2489 85.3284 71.7138 85.3284C73.1901 85.3284 74.3825 86.4413 74.3825 87.9857V91.5743ZM73.7011 87.9971C73.7011 86.8274 72.8494 85.9984 71.7138 85.9984C70.5782 85.9984 69.7265 86.8274 69.7265 87.9971V91.5516C69.7265 92.7326 70.5782 93.5616 71.7138 93.5616C72.8494 93.5616 73.7011 92.7326 73.7011 91.5516V87.9971Z" fill="#2C6231"/>
<path d="M257.836 91.7819C257.836 92.7921 258.418 93.4509 259.318 93.4509C260.218 93.4509 260.8 92.7921 260.8 91.7819V85.6657H261.47V91.8038C261.47 93.1654 260.592 94.0988 259.318 94.0988C258.044 94.0988 257.166 93.1654 257.166 91.8038V90.8705H257.836V91.7819ZM265.377 85.6218H266.19L268.913 93.3301V93.9231H268.419L267.464 91.2109H264.104L263.148 93.9231H262.654V93.3301L265.377 85.6218ZM264.312 90.596H267.255L265.828 86.5332L265.795 86.4343H265.773L265.74 86.5332L264.312 90.596ZM269.696 89.7944C269.696 87.4006 271.464 85.49 273.791 85.49C275.658 85.49 277.162 86.7088 277.69 88.4108H276.965C276.471 87.0712 275.274 86.1598 273.791 86.1598C271.848 86.1598 270.387 87.73 270.387 89.7944C270.387 91.8587 271.848 93.429 273.791 93.429C275.274 93.429 276.471 92.5176 276.965 91.1779H277.69C277.162 92.8799 275.658 94.0988 273.791 94.0988C271.464 94.0988 269.696 92.1882 269.696 89.7944ZM283.198 94.0988C280.859 94.0988 279.003 92.1882 279.003 89.7944C279.003 87.4006 280.859 85.49 283.198 85.49C285.526 85.49 287.382 87.4006 287.382 89.7944C287.382 90.8925 286.997 91.8807 286.349 92.6493L287.118 93.407V94H286.855L285.921 93.0776C285.196 93.7145 284.241 94.0988 283.198 94.0988ZM283.198 93.4399C284.065 93.4399 284.834 93.1435 285.449 92.6164L283.341 90.5301V89.9481H283.604L285.877 92.1772C286.382 91.5623 286.701 90.7277 286.701 89.7944C286.701 87.7191 285.153 86.1488 283.198 86.1488C281.243 86.1488 279.695 87.7191 279.695 89.7944C279.695 91.8697 281.243 93.4399 283.198 93.4399ZM294.616 91.2219C294.616 92.9348 293.43 94.0988 291.815 94.0988C290.201 94.0988 289.004 92.9348 289.004 91.2219V85.6657H289.685V91.1779C289.685 92.5286 290.531 93.429 291.815 93.429C293.1 93.429 293.946 92.5286 293.946 91.1779V85.6657H294.616V91.2219ZM298.523 85.6218H299.336L302.059 93.3301V93.9231H301.565L300.609 91.2109H297.249L296.294 93.9231H295.8V93.3301L298.523 85.6218ZM297.458 90.596H300.401L298.973 86.5332L298.94 86.4343H298.918L298.885 86.5332L297.458 90.596ZM303.461 85.6657H305.888C307.052 85.6657 308.139 86.5551 308.139 87.9167C308.139 88.8501 307.634 89.5199 306.931 89.8493C307.48 90.1128 307.865 90.6399 307.865 91.3207V93.9231H307.184V91.3536C307.184 90.607 306.668 90.1787 305.943 90.1787H304.131V93.9231H303.461V85.6657ZM304.131 89.5858H305.745C306.69 89.5858 307.458 88.9379 307.458 87.9277C307.458 86.9285 306.69 86.2696 305.745 86.2696H304.131V89.5858ZM316.012 89.7944C316.012 92.2101 314.178 93.9231 311.938 93.9231H309.895V85.6657H311.938C314.178 85.6657 316.012 87.3787 316.012 89.7944ZM315.331 89.7944C315.331 87.7081 313.804 86.2806 311.839 86.2806H310.565V93.3082H311.839C313.804 93.3082 315.331 91.8697 315.331 89.7944ZM317.713 85.6657H321.742V86.2916H318.382V89.3552H321.523V89.9811H318.382V93.2972H321.742V93.9231H317.713V85.6657ZM323.178 87.741C323.178 86.3794 324.21 85.49 325.528 85.49C326.769 85.49 327.746 86.2806 327.856 87.774H327.197C327.098 86.643 326.373 86.1049 325.517 86.1049C324.595 86.1049 323.837 86.7198 323.837 87.741C323.837 88.5975 324.353 88.9489 325.166 89.2124L326.417 89.6077C327.417 89.9262 328.108 90.5521 328.108 91.705C328.108 93.1435 326.988 94.0988 325.539 94.0988C324.144 94.0988 323.013 93.2094 322.915 91.5842H323.584C323.672 92.836 324.529 93.4509 325.539 93.4509C326.593 93.4509 327.45 92.7811 327.45 91.727C327.45 90.8705 326.977 90.4752 326.187 90.2226L324.957 89.8273C323.925 89.4979 323.178 88.9599 323.178 87.741ZM329.744 85.6657H331.995C333.214 85.6657 334.389 86.61 334.389 88.1473C334.389 89.6846 333.181 90.6179 331.995 90.6179H330.414V93.9231H329.744V85.6657ZM330.414 90.003H331.874C332.852 90.003 333.719 89.3112 333.719 88.1363C333.719 86.9614 332.852 86.2696 331.874 86.2696H330.414V90.003ZM337.159 85.6218H337.971L340.695 93.3301V93.9231H340.2L339.245 91.2109H335.885L334.93 93.9231H334.436V93.3301L337.159 85.6218ZM336.094 90.596H339.036L337.609 86.5332L337.576 86.4343H337.554L337.521 86.5332L336.094 90.596ZM341.477 89.7944C341.477 87.4006 343.245 85.49 345.573 85.49C347.439 85.49 348.944 86.7088 349.471 88.4108H348.746C348.252 87.0712 347.055 86.1598 345.573 86.1598C343.629 86.1598 342.169 87.73 342.169 89.7944C342.169 91.8587 343.629 93.429 345.573 93.429C347.055 93.429 348.252 92.5176 348.746 91.1779H349.471C348.944 92.8799 347.439 94.0988 345.573 94.0988C343.245 94.0988 341.477 92.1882 341.477 89.7944ZM351.169 85.6657H355.199V86.2916H351.839V89.3552H354.979V89.9811H351.839V93.2972H355.199V93.9231H351.169V85.6657ZM356.635 87.741C356.635 86.3794 357.667 85.49 358.984 85.49C360.225 85.49 361.202 86.2806 361.312 87.774H360.653C360.555 86.643 359.83 86.1049 358.973 86.1049C358.051 86.1049 357.293 86.7198 357.293 87.741C357.293 88.5975 357.809 88.9489 358.622 89.2124L359.874 89.6077C360.873 89.9262 361.565 90.5521 361.565 91.705C361.565 93.1435 360.445 94.0988 358.995 94.0988C357.601 94.0988 356.47 93.2094 356.371 91.5842H357.041C357.129 92.836 357.985 93.4509 358.995 93.4509C360.05 93.4509 360.906 92.7811 360.906 91.727C360.906 90.8705 360.434 90.4752 359.643 90.2226L358.413 89.8273C357.381 89.4979 356.635 88.9599 356.635 87.741ZM365.806 93.9451H365.071L362.38 86.2586V85.6657H362.885L365.411 92.9348L365.422 93.0007H365.444L365.466 92.9348L367.991 85.6657H368.486V86.2586L365.806 93.9451ZM369.892 85.6657H373.922V86.2916H370.562V89.3552H373.702V89.9811H370.562V93.2972H373.922V93.9231H369.892V85.6657ZM375.522 85.6657H377.948C379.112 85.6657 380.199 86.5551 380.199 87.9167C380.199 88.8501 379.694 89.5199 378.991 89.8493C379.54 90.1128 379.925 90.6399 379.925 91.3207V93.9231H379.244V91.3536C379.244 90.607 378.728 90.1787 378.003 90.1787H376.191V93.9231H375.522V85.6657ZM376.191 89.5858H377.805C378.75 89.5858 379.518 88.9379 379.518 87.9277C379.518 86.9285 378.75 86.2696 377.805 86.2696H376.191V89.5858ZM386.223 85.6657V86.2916H383.939V93.9231H383.269V86.2916H380.985V85.6657H386.223ZM387.003 87.741C387.003 86.3794 388.035 85.49 389.353 85.49C390.593 85.49 391.571 86.2806 391.68 87.774H391.022C390.923 86.643 390.198 86.1049 389.342 86.1049C388.419 86.1049 387.662 86.7198 387.662 87.741C387.662 88.5975 388.178 88.9489 388.99 89.2124L390.242 89.6077C391.241 89.9262 391.933 90.5521 391.933 91.705C391.933 93.1435 390.813 94.0988 389.364 94.0988C387.969 94.0988 386.838 93.2094 386.739 91.5842H387.409C387.497 92.836 388.353 93.4509 389.364 93.4509C390.418 93.4509 391.274 92.7811 391.274 91.727C391.274 90.8705 390.802 90.4752 390.011 90.2226L388.782 89.8273C387.749 89.4979 387.003 88.9599 387.003 87.741ZM393.732 94.0109C393.425 94.0109 393.172 93.7584 393.172 93.4399C393.172 93.1325 393.425 92.869 393.732 92.869C394.051 92.869 394.303 93.1325 394.303 93.4399C394.303 93.7584 394.051 94.0109 393.732 94.0109ZM395.949 85.6657H399.902V86.2916H396.619V89.3662H399.683V89.992H396.619V93.9231H395.949V85.6657ZM401.364 85.6657H403.791C404.955 85.6657 406.042 86.5551 406.042 87.9167C406.042 88.8501 405.537 89.5199 404.834 89.8493C405.383 90.1128 405.768 90.6399 405.768 91.3207V93.9231H405.087V91.3536C405.087 90.607 404.571 90.1787 403.846 90.1787H402.034V93.9231H401.364V85.6657ZM402.034 89.5858H403.648C404.593 89.5858 405.361 88.9379 405.361 87.9277C405.361 86.9285 404.593 86.2696 403.648 86.2696H402.034V89.5858Z" fill="#2C6231"/>
</svg>
