<svg width="311" height="219" viewBox="0 0 311 219" fill="none" xmlns="http://www.w3.org/2000/svg">
<path d="M224.658 37.53C207.998 57.0978 183.169 69.531 155.51 69.531C127.832 69.531 103.004 57.0978 86.3438 37.53C89.7677 31.9255 93.861 26.7801 98.5092 22.1702C111.631 39.328 132.308 50.403 155.511 50.403C178.713 50.403 199.39 39.328 212.493 22.1702C217.141 26.7609 221.234 31.9255 224.658 37.53Z" fill="#325928"/>
<path d="M188.946 5.9497C182.941 3.21477 176.533 1.20623 169.858 0.00140097V7.25798H169.851C169.851 7.2881 169.857 7.31588 169.857 7.346C169.857 15.6092 163.353 21.7111 155.511 21.7111C147.821 21.7111 141.146 15.6092 141.146 7.346C141.146 7.31588 141.151 7.2881 141.151 7.25798L141.15 0C141.149 0.000459071 141.147 0.00071904 141.146 0.000948576C134.47 1.20601 128.062 3.2143 122.056 5.94972C122.018 6.40877 122.018 6.88697 122.018 7.34602C122.018 25.8045 137.033 40.8391 155.511 40.8391C173.969 40.8391 188.985 25.8045 188.985 7.34602C188.985 6.88697 188.985 6.40875 188.946 5.9497Z" fill="#325928"/>
<path d="M236.42 76.0345C213.141 91.2795 185.329 100.136 155.508 100.136C125.669 100.136 97.8568 91.2795 74.5781 76.0345C74.8841 68.8233 76.1657 61.8798 78.2507 55.2806C99.8079 71.4438 126.549 81.0078 155.508 81.0078C184.449 81.0078 211.209 71.4246 232.766 55.2806C234.832 61.8798 236.114 68.8233 236.42 76.0345Z" fill="#325928"/>
<path d="M145.488 158.476H123.357C130.281 148.472 132.998 138.985 130.721 132.175C128.866 126.609 124.18 124.524 120.584 123.759C112.645 122.075 101.838 123.357 89.9023 127.278C86.1149 122.056 82.9206 116.375 80.4531 110.312C92.848 105.874 109.604 101.876 124.562 105.052C136.364 107.557 145.24 115.228 148.874 126.112C150.978 132.443 152.508 143.671 145.488 158.476Z" fill="#325928"/>
<path d="M230.552 110.312C228.084 116.375 224.89 122.056 221.103 127.278C209.167 123.357 198.359 122.075 190.421 123.759C186.825 124.524 182.139 126.609 180.284 132.175C178.007 138.985 180.723 148.472 187.667 158.476H165.517C158.497 143.671 160.027 132.443 162.15 126.112C165.785 115.228 174.641 107.557 186.443 105.052C201.401 101.876 218.157 105.874 230.552 110.312Z" fill="#325928"/>
<path d="M91.7297 188.996C91.7297 192.19 89.2637 194.492 86.2104 194.492C83.1806 194.492 80.691 192.19 80.691 188.996V181.574C80.691 178.38 83.1806 176.078 86.2104 176.078C89.2637 176.078 91.7297 178.38 91.7297 181.574V188.996ZM90.3205 181.597C90.3205 179.178 88.5591 177.464 86.2104 177.464C83.8617 177.464 82.1002 179.178 82.1002 181.597V188.949C82.1002 191.391 83.8617 193.106 86.2104 193.106C88.5591 193.106 90.3205 191.391 90.3205 188.949V181.597ZM103.573 176.454V188.08H106.391V189.324H103.573V194.116H102.21V189.324H94.3423V188.174L102.163 176.454H103.573ZM95.9159 188.08H102.21V178.615H102.163L95.9159 188.033V188.08ZM117.237 194.116H116.321V192.871L123.32 177.769H114.231V176.454H124.823V177.746L117.237 194.116ZM131.902 176.078C134.979 176.078 136.999 178.427 136.999 181.316V181.339C136.999 183.993 135.143 185.52 133.124 186.976L132.02 187.774C130.094 189.16 128.473 190.475 128.285 192.8H137.257V194.116H126.947V193.223C126.947 189.865 129.366 188.103 131.644 186.459C133.711 184.979 135.613 183.641 135.613 181.339V181.316C135.613 179.084 134.157 177.393 131.902 177.393C129.671 177.393 128.215 179.084 128.215 181.48V182.443H126.829V181.48C126.829 178.403 128.849 176.078 131.902 176.078ZM155.264 188.855C155.264 186.318 153.479 184.51 151.153 184.51C149.744 184.51 148.64 185.214 147.889 186.248L146.644 185.801L148.359 176.454H156.039V177.769H149.415L148.194 184.51C148.946 183.782 150.003 183.288 151.341 183.288C154.207 183.288 156.649 185.59 156.649 188.855C156.649 192.119 154.23 194.492 151.153 194.492C148.241 194.492 145.916 192.378 145.681 189.371H147.043C147.278 191.626 148.993 193.176 151.153 193.176C153.479 193.176 155.264 191.391 155.264 188.855ZM164.311 176.078C167.388 176.078 169.408 178.427 169.408 181.316V181.339C169.408 183.993 167.552 185.52 165.532 186.976L164.429 187.774C162.503 189.16 160.882 190.475 160.694 192.8H169.666V194.116H159.355V193.223C159.355 189.865 161.775 188.103 164.053 186.459C166.12 184.979 168.022 183.641 168.022 181.339V181.316C168.022 179.084 166.566 177.393 164.311 177.393C162.08 177.393 160.624 179.084 160.624 181.48V182.443H159.238V181.48C159.238 178.403 161.258 176.078 164.311 176.078ZM181.848 176.454V194.116H180.439V177.793H177.479V176.454H181.848ZM190.435 176.078C193.512 176.078 195.532 178.427 195.532 181.316V181.339C195.532 183.993 193.677 185.52 191.657 186.976L190.553 187.774C188.627 189.16 187.006 190.475 186.818 192.8H195.79V194.116H185.48V193.223C185.48 189.865 187.899 188.103 190.177 186.459C192.244 184.979 194.146 183.641 194.146 181.339V181.316C194.146 179.084 192.69 177.393 190.435 177.393C188.204 177.393 186.748 179.084 186.748 181.48V182.443H185.362V181.48C185.362 178.403 187.382 176.078 190.435 176.078ZM204.566 181.574C204.566 178.427 207.079 176.078 210.109 176.078C213.139 176.078 215.629 178.427 215.629 181.527V188.996C215.629 192.166 213.163 194.492 210.133 194.492C207.103 194.492 204.66 192.19 204.613 189.066H205.999C206.07 191.391 207.831 193.129 210.133 193.129C212.458 193.129 214.243 191.344 214.243 188.949V184.698C213.468 186.083 211.894 187.07 210.015 187.07C207.103 187.07 204.566 184.674 204.566 181.574ZM214.266 181.574C214.266 179.202 212.458 177.37 210.109 177.37C207.761 177.37 205.952 179.225 205.952 181.574C205.952 183.97 207.761 185.825 210.109 185.825C212.458 185.825 214.266 183.97 214.266 181.574ZM230.058 188.996C230.058 192.19 227.592 194.492 224.538 194.492C221.509 194.492 219.019 192.19 219.019 188.996V181.574C219.019 178.38 221.509 176.078 224.538 176.078C227.592 176.078 230.058 178.38 230.058 181.574V188.996ZM228.648 181.597C228.648 179.178 226.887 177.464 224.538 177.464C222.19 177.464 220.428 179.178 220.428 181.597V188.949C220.428 191.391 222.19 193.106 224.538 193.106C226.887 193.106 228.648 191.391 228.648 188.949V181.597Z" fill="#325928"/>
<path d="M2.2937 213.821C2.2937 215.91 3.49732 217.273 5.35953 217.273C7.22174 217.273 8.42537 215.91 8.42537 213.821V201.172H9.81067V213.867C9.81067 216.683 7.99388 218.613 5.35953 218.613C2.72519 218.613 0.908395 216.683 0.908395 213.867V211.936H2.2937V213.821ZM17.8917 201.081H19.5722L25.2042 217.023V218.25H24.1823L22.2065 212.64H15.2573L13.2816 218.25H12.2596V217.023L17.8917 201.081ZM15.6888 211.368H21.7751L18.8228 202.966L18.7546 202.761H18.7092L18.6411 202.966L15.6888 211.368ZM26.8225 209.711C26.8225 204.76 30.4788 200.808 35.2933 200.808C39.154 200.808 42.2652 203.329 43.3553 206.849H41.8564C40.8345 204.079 38.3591 202.194 35.2933 202.194C31.2736 202.194 28.2532 205.441 28.2532 209.711C28.2532 213.98 31.2736 217.228 35.2933 217.228C38.3591 217.228 40.8345 215.343 41.8564 212.572H43.3553C42.2652 216.092 39.154 218.613 35.2933 218.613C30.4788 218.613 26.8225 214.661 26.8225 209.711ZM54.7479 218.613C49.9106 218.613 46.0727 214.661 46.0727 209.711C46.0727 204.76 49.9106 200.808 54.7479 200.808C59.5623 200.808 63.4003 204.76 63.4003 209.711C63.4003 211.982 62.6055 214.025 61.2656 215.615L62.8553 217.182V218.408H62.3102L60.3799 216.501C58.8811 217.818 56.9053 218.613 54.7479 218.613ZM54.7479 217.25C56.5419 217.25 58.1316 216.637 59.4034 215.547L55.0431 211.232V210.029H55.5881L60.2891 214.639C61.3337 213.367 61.9923 211.641 61.9923 209.711C61.9923 205.418 58.7902 202.171 54.7479 202.171C50.7055 202.171 47.5034 205.418 47.5034 209.711C47.5034 214.003 50.7055 217.25 54.7479 217.25ZM78.3613 212.663C78.3613 216.206 75.9087 218.613 72.5703 218.613C69.232 218.613 66.7566 216.206 66.7566 212.663V201.172H68.1646V212.572C68.1646 215.365 69.9133 217.228 72.5703 217.228C75.2274 217.228 76.976 215.365 76.976 212.572V201.172H78.3613V212.663ZM86.4427 201.081H88.1232L93.7553 217.023V218.25H92.7333L90.7576 212.64H83.8083L81.8326 218.25H80.8106V217.023L86.4427 201.081ZM84.2398 211.368H90.3261L87.3738 202.966L87.3057 202.761H87.2602L87.1921 202.966L84.2398 211.368ZM96.6563 201.172H101.675C104.082 201.172 106.331 203.011 106.331 205.827C106.331 207.758 105.286 209.143 103.833 209.824C104.968 210.369 105.763 211.459 105.763 212.867V218.25H104.355V212.935C104.355 211.391 103.288 210.505 101.789 210.505H98.0416V218.25H96.6563V201.172ZM98.0416 209.279H101.38C103.333 209.279 104.923 207.939 104.923 205.85C104.923 203.783 103.333 202.421 101.38 202.421H98.0416V209.279ZM122.612 209.711C122.612 214.707 118.82 218.25 114.187 218.25H109.963V201.172H114.187C118.82 201.172 122.612 204.714 122.612 209.711ZM121.204 209.711C121.204 205.396 118.048 202.443 113.983 202.443H111.348V216.978H113.983C118.048 216.978 121.204 214.003 121.204 209.711ZM126.13 201.172H134.465V202.466H127.516V208.802H134.011V210.097H127.516V216.955H134.465V218.25H126.13V201.172ZM137.434 205.464C137.434 202.648 139.569 200.808 142.294 200.808C144.86 200.808 146.881 202.443 147.108 205.532H145.746C145.541 203.193 144.043 202.08 142.271 202.08C140.364 202.08 138.797 203.352 138.797 205.464C138.797 207.235 139.864 207.962 141.545 208.507L144.133 209.325C146.2 209.983 147.631 211.278 147.631 213.662C147.631 216.637 145.314 218.613 142.317 218.613C139.432 218.613 137.093 216.773 136.889 213.412H138.274C138.456 216.001 140.227 217.273 142.317 217.273C144.497 217.273 146.268 215.888 146.268 213.708C146.268 211.936 145.292 211.119 143.657 210.596L141.113 209.779C138.978 209.097 137.434 207.985 137.434 205.464ZM151.014 201.172H155.669C158.19 201.172 160.62 203.125 160.62 206.304C160.62 209.483 158.122 211.414 155.669 211.414H152.399V218.25H151.014V201.172ZM152.399 210.142H155.419C157.441 210.142 159.235 208.711 159.235 206.281C159.235 203.851 157.441 202.421 155.419 202.421H152.399V210.142ZM166.349 201.081H168.029L173.661 217.023V218.25H172.639L170.664 212.64H163.714L161.739 218.25H160.717V217.023L166.349 201.081ZM164.146 211.368H170.232L167.28 202.966L167.212 202.761H167.166L167.098 202.966L164.146 211.368ZM175.279 209.711C175.279 204.76 178.936 200.808 183.75 200.808C187.611 200.808 190.722 203.329 191.812 206.849H190.313C189.291 204.079 186.816 202.194 183.75 202.194C179.731 202.194 176.71 205.441 176.71 209.711C176.71 213.98 179.731 217.228 183.75 217.228C186.816 217.228 189.291 215.343 190.313 212.572H191.812C190.722 216.092 187.611 218.613 183.75 218.613C178.936 218.613 175.279 214.661 175.279 209.711ZM195.325 201.172H203.659V202.466H196.71V208.802H203.205V210.097H196.71V216.955H203.659V218.25H195.325V201.172ZM206.628 205.464C206.628 202.648 208.763 200.808 211.488 200.808C214.054 200.808 216.075 202.443 216.303 205.532H214.94C214.736 203.193 213.237 202.08 211.465 202.08C209.558 202.08 207.991 203.352 207.991 205.464C207.991 207.235 209.058 207.962 210.739 208.507L213.328 209.325C215.394 209.983 216.825 211.278 216.825 213.662C216.825 216.637 214.509 218.613 211.511 218.613C208.627 218.613 206.288 216.773 206.083 213.412H207.468C207.65 216.001 209.422 217.273 211.511 217.273C213.691 217.273 215.462 215.888 215.462 213.708C215.462 211.936 214.486 211.119 212.851 210.596L210.307 209.779C208.172 209.097 206.628 207.985 206.628 205.464ZM225.597 218.295H224.075L218.511 202.398V201.172H219.556L224.779 216.206L224.802 216.342H224.848L224.893 216.206L230.116 201.172H231.138V202.398L225.597 218.295ZM234.047 201.172H242.381V202.466H235.432V208.802H241.927V210.097H235.432V216.955H242.381V218.25H234.047V201.172ZM245.69 201.172H250.709C253.116 201.172 255.364 203.011 255.364 205.827C255.364 207.758 254.32 209.143 252.866 209.824C254.002 210.369 254.797 211.459 254.797 212.867V218.25H253.389V212.935C253.389 211.391 252.321 210.505 250.822 210.505H247.075V218.25H245.69V201.172ZM247.075 209.279H250.414C252.367 209.279 253.956 207.939 253.956 205.85C253.956 203.783 252.367 202.421 250.414 202.421H247.075V209.279ZM267.822 201.172V202.466H263.099V218.25H261.713V202.466H256.99V201.172H267.822ZM269.435 205.464C269.435 202.648 271.57 200.808 274.295 200.808C276.861 200.808 278.883 202.443 279.11 205.532H277.747C277.543 203.193 276.044 202.08 274.272 202.08C272.365 202.08 270.798 203.352 270.798 205.464C270.798 207.235 271.865 207.962 273.546 208.507L276.135 209.325C278.201 209.983 279.632 211.278 279.632 213.662C279.632 216.637 277.316 218.613 274.318 218.613C271.434 218.613 269.095 216.773 268.89 213.412H270.275C270.457 216.001 272.229 217.273 274.318 217.273C276.498 217.273 278.269 215.888 278.269 213.708C278.269 211.936 277.293 211.119 275.658 210.596L273.114 209.779C270.979 209.097 269.435 207.985 269.435 205.464ZM283.353 218.431C282.717 218.431 282.195 217.909 282.195 217.25C282.195 216.614 282.717 216.069 283.353 216.069C284.012 216.069 284.534 216.614 284.534 217.25C284.534 217.909 284.012 218.431 283.353 218.431ZM287.938 201.172H296.114V202.466H289.324V208.825H295.66V210.119H289.324V218.25H287.938V201.172ZM299.138 201.172H304.157C306.564 201.172 308.812 203.011 308.812 205.827C308.812 207.758 307.768 209.143 306.314 209.824C307.45 210.369 308.245 211.459 308.245 212.867V218.25H306.837V212.935C306.837 211.391 305.769 210.505 304.27 210.505H300.523V218.25H299.138V201.172ZM300.523 209.279H303.862C305.815 209.279 307.404 207.939 307.404 205.85C307.404 203.783 305.815 202.421 303.862 202.421H300.523V209.279Z" fill="#325928"/>
</svg>
