<svg width="80" height="77" viewBox="416 0 80 77" fill="none" xmlns="http://www.w3.org/2000/svg">
<path d="M489.44 18.1463C481.384 27.6077 469.379 33.6193 456.006 33.6193C442.623 33.6193 430.618 27.6077 422.562 18.1463C424.218 15.4365 426.197 12.9486 428.445 10.7196C434.789 19.0157 444.787 24.3707 456.006 24.3707C467.224 24.3707 477.222 19.0157 483.557 10.7196C485.805 12.9393 487.784 15.4365 489.44 18.1463Z" fill="#2C6231"/>
<path d="M472.177 2.87677C469.274 1.55439 466.176 0.583233 462.948 0.000677393V3.50935H462.945C462.945 3.52391 462.947 3.53734 462.947 3.55191C462.947 7.54729 459.803 10.4977 456.011 10.4977C452.293 10.4977 449.065 7.54729 449.065 3.55191C449.065 3.53734 449.068 3.52391 449.068 3.50935L449.067 0C449.067 0.000221968 449.066 0.000347667 449.065 0.000458651C445.837 0.583125 442.739 1.55417 439.835 2.87678C439.816 3.09874 439.816 3.32996 439.816 3.55192C439.816 12.4769 447.077 19.7463 456.011 19.7463C464.936 19.7463 472.196 12.4769 472.196 3.55192C472.196 3.32996 472.196 3.09873 472.177 2.87677Z" fill="#2C6231"/>
<path d="M495.128 36.764C483.872 44.1351 470.425 48.4173 456.006 48.4173C441.578 48.4173 428.131 44.1351 416.875 36.764C417.023 33.2772 417.643 29.9199 418.651 26.7291C429.074 34.5443 442.004 39.1686 456.006 39.1686C469.999 39.1686 482.938 34.535 493.361 26.7291C494.36 29.9199 494.98 33.2772 495.128 36.764Z" fill="#2C6231"/>
<path d="M451.164 76.6256H440.464C443.812 71.7886 445.125 67.2012 444.024 63.9087C443.127 61.2174 440.861 60.2092 439.122 59.8393C435.284 59.0254 430.059 59.6451 424.288 61.5411C422.456 59.0162 420.912 56.2693 419.719 53.3375C425.712 51.1918 433.814 49.2588 441.046 50.7941C446.753 52.0057 451.044 55.7144 452.801 60.9769C453.819 64.0382 454.558 69.4672 451.164 76.6256Z" fill="#2C6231"/>
<path d="M492.294 53.3375C491.101 56.2693 489.556 59.0162 487.725 61.5411C481.954 59.6451 476.728 59.0254 472.89 59.8393C471.151 60.2092 468.885 61.2174 467.988 63.9087C466.888 67.2012 468.201 71.7886 471.558 76.6256H460.848C457.454 69.4672 458.194 64.0382 459.221 60.9769C460.978 55.7144 465.26 52.0057 470.966 50.7941C478.199 49.2588 486.301 51.1918 492.294 53.3375Z" fill="#2C6231"/>
</svg>
