<svg xmlns="http://www.w3.org/2000/svg" viewBox="1560 -20 340 340" fill="none">
  <g fill="#41693a">
    <path d="M1856.24 68.8214C1825.69 104.704 1780.16 127.504 1729.44 127.504C1678.68 127.504 1633.16 104.704 1602.6 68.8214C1608.88 58.5441 1616.39 49.1085 1624.91 40.655C1648.97 72.1186 1686.89 92.4278 1729.44 92.4278C1771.99 92.4278 1809.91 72.1186 1833.93 40.655C1842.46 49.0734 1849.96 58.5441 1856.24 68.8214Z" />
    <path d="M1790.77 10.9104C1779.76 5.89516 1768.01 2.21196 1755.77 0.0025696V13.3095H1755.76C1755.76 13.3647 1755.77 13.4157 1755.77 13.4709C1755.77 28.6237 1743.84 39.8133 1729.46 39.8133C1715.36 39.8133 1703.12 28.6237 1703.12 13.4709C1703.12 13.4157 1703.13 13.3647 1703.13 13.3095V0C1703.12 0.00084183 1703.12 0.00131856 1703.12 0.00173947C1690.88 2.21155 1679.12 5.89431 1668.11 10.9104C1668.04 11.7522 1668.04 12.6291 1668.04 13.4709C1668.04 47.3197 1695.58 74.8897 1729.46 74.8897C1763.31 74.8897 1790.84 47.3197 1790.84 13.4709C1790.84 12.6291 1790.84 11.7522 1790.77 10.9104Z" />
    <path d="M1877.81 139.43C1835.13 167.386 1784.13 183.627 1729.44 183.627C1674.72 183.627 1623.72 167.386 1581.03 139.43C1581.59 126.207 1583.94 113.474 1587.77 101.372C1627.3 131.012 1676.34 148.55 1729.44 148.55C1782.51 148.55 1831.58 130.977 1871.11 101.372C1874.9 113.474 1877.25 126.207 1877.81 139.43Z" />
    <path d="M1711.08 290.609H1670.49C1683.19 272.264 1688.17 254.866 1684 242.379C1680.6 232.172 1672 228.349 1665.41 226.945C1650.85 223.859 1631.03 226.209 1609.15 233.4C1602.2 223.824 1596.34 213.406 1591.82 202.287C1614.55 194.149 1645.27 186.818 1672.7 192.641C1694.35 197.236 1710.62 211.302 1717.29 231.26C1721.15 242.87 1723.95 263.46 1711.08 290.609Z" />
    <path d="M1867.07 202.287C1862.54 213.406 1856.68 223.824 1849.74 233.4C1827.85 226.209 1808.03 223.859 1793.48 226.945C1786.88 228.349 1778.29 232.172 1774.89 242.379C1770.71 254.866 1775.69 272.264 1788.42 290.609H1747.81C1734.93 263.46 1737.74 242.87 1741.63 231.26C1748.3 211.302 1764.54 197.236 1786.18 192.641C1813.61 186.818 1844.34 194.149 1867.07 202.287Z" />
  </g>
</svg>
